# xmcd CD database file generated by OrangeCD 6.0
#
# Track frame offsets:
#	150
#	15924
#	32895
#	53446
#	66177
#	86656
#	107599
#	122514
#	138924
#	160152
#	179602
#
# Disc length: 2700 seconds
#
# Revision: 1
# Processed by: cddbd v1.5.2PL0 Copyright (c) Steve Scherf et al.
# Submitted via: OrangeCD 6.0
#
DISCID=840a8a0b
DTITLE=Idgy Vaughn - Origin Story
DYEAR=2006
DGENRE=Country
TTITLE0=Redbone Hound
TTITLE1=Dragging the River
TTITLE2=Truckstop Waitress
TTITLE3=Mister Wrong
TTITLE4=Good Enough
TTITLE5=Pearl of Georgia
TTITLE6=Small Town Girls
TTITLE7=Midwestern Biography
TTITLE8=Saint Francis Fire
TTITLE9=Attic Window
TTITLE10=Over You
EXTD=
EXTT0=
EXTT1=
EXTT2=
EXTT3=
EXTT4=
EXTT5=
EXTT6=
EXTT7=
EXTT8=
EXTT9=
EXTT10=
PLAYORDER=
